<svg id="Layer_1" data-name="Layer 1" xmlns="http://www.w3.org/2000/svg" viewBox="0 0 149.31 90"><title>logo</title><rect width="150" height="90" style="fill:#fff"/><path d="M55.41,43a2.77,2.77,0,0,1,1.07,1.34V39.77h2.1v11.1h-2.1V49.13a2.84,2.84,0,0,1-1.07,1.35,3.14,3.14,0,0,1-1.79.5,3.57,3.57,0,0,1-1.89-.51A3.39,3.39,0,0,1,50.42,49a5,5,0,0,1-.48-2.27,5.1,5.1,0,0,1,.48-2.28A3.42,3.42,0,0,1,51.73,43a3.57,3.57,0,0,1,1.89-.51A3.14,3.14,0,0,1,55.41,43Zm-2.72,2a2.5,2.5,0,0,0-.6,1.77,2.45,2.45,0,0,0,.6,1.76,2.26,2.26,0,0,0,3.17,0,2.38,2.38,0,0,0,.62-1.74A2.41,2.41,0,0,0,55.86,45a2.25,2.25,0,0,0-3.17,0Z" style="fill:#00c8bd"/><path d="M68.24,47.12H62.15a2.3,2.3,0,0,0,.6,1.64,1.93,1.93,0,0,0,1.38.52,2,2,0,0,0,1.23-.36A1.6,1.6,0,0,0,66,48h2.23a3.57,3.57,0,0,1-.7,1.56,3.65,3.65,0,0,1-1.39,1.08,4.42,4.42,0,0,1-1.88.39,4.37,4.37,0,0,1-2.16-.52A3.61,3.61,0,0,1,60.61,49a4.63,4.63,0,0,1-.53-2.26,4.74,4.74,0,0,1,.53-2.28A3.59,3.59,0,0,1,62.08,43a4.48,4.48,0,0,1,2.16-.51,4.35,4.35,0,0,1,2.15.51,3.63,3.63,0,0,1,1.43,1.4,4.13,4.13,0,0,1,.5,2A4.05,4.05,0,0,1,68.24,47.12Zm-2.58-2.47a2,2,0,0,0-1.42-.53,2.08,2.08,0,0,0-1.44.53,2.14,2.14,0,0,0-.65,1.54h4A1.87,1.87,0,0,0,65.66,44.65Z" style="fill:#00c8bd"/><path d="M71.93,39.77v11.1H69.82V39.77Z" style="fill:#00c8bd"/><path d="M74,39.35a1.36,1.36,0,0,1,1-.33,1.33,1.33,0,0,1,.94.33,1.13,1.13,0,0,1,0,1.65,1.37,1.37,0,0,1-.94.32A1.4,1.4,0,0,1,74,41a1.13,1.13,0,0,1,0-1.65Zm2,3.21v8.31H73.85V42.56Z" style="fill:#00c8bd"/><path d="M81.5,48.76l2.1-6.2h2.25l-3.07,8.31H80.2l-3.08-8.31h2.27Z" style="fill:#00c8bd"/><path d="M94.76,47.12H88.67a2.3,2.3,0,0,0,.6,1.64,1.93,1.93,0,0,0,1.38.52,2,2,0,0,0,1.23-.36,1.6,1.6,0,0,0,.62-1h2.23a3.57,3.57,0,0,1-.7,1.56,3.65,3.65,0,0,1-1.39,1.08,4.42,4.42,0,0,1-1.88.39,4.37,4.37,0,0,1-2.16-.52A3.61,3.61,0,0,1,87.13,49a4.63,4.63,0,0,1-.53-2.26,4.74,4.74,0,0,1,.53-2.28A3.59,3.59,0,0,1,88.6,43a4.48,4.48,0,0,1,2.16-.51,4.35,4.35,0,0,1,2.15.51,3.63,3.63,0,0,1,1.43,1.4,4.13,4.13,0,0,1,.5,2A4.05,4.05,0,0,1,94.76,47.12Zm-2.58-2.47a2,2,0,0,0-1.42-.53,2.08,2.08,0,0,0-1.44.53,2.14,2.14,0,0,0-.65,1.54h4A1.87,1.87,0,0,0,92.18,44.65Z" style="fill:#00c8bd"/><path d="M99.68,42.9a3.32,3.32,0,0,1,1.71-.46v2.27h-.61c-1.55,0-2.33.72-2.33,2.16v4H96.34V42.56h2.11v1.59A3.51,3.51,0,0,1,99.68,42.9Z" style="fill:#00c8bd"/><path d="M114.46,42.56l-2.24,8.31h-2.34l-1.78-6-1.83,6h-2.34l-2.22-8.31h2.11L105.17,49,107,42.56h2.23L111.11,49l1.37-6.42Z" style="fill:#00c8bd"/><path d="M122.75,43.39a3.81,3.81,0,0,1,.86,2.65v4.83h-2.1V46.28a2.14,2.14,0,0,0-.51-1.53,1.81,1.81,0,0,0-1.4-.55,1.86,1.86,0,0,0-1.44.58,2.39,2.39,0,0,0-.54,1.68v4.41h-2.11V39.77h2.11v4.46a2.65,2.65,0,0,1,1.09-1.31,3.22,3.22,0,0,1,1.75-.48A2.94,2.94,0,0,1,122.75,43.39Z" style="fill:#00c8bd"/><path d="M131.49,43A3.71,3.71,0,0,1,133,44.44a4.53,4.53,0,0,1,.56,2.28A4.43,4.43,0,0,1,133,49a3.73,3.73,0,0,1-1.52,1.48,4.83,4.83,0,0,1-4.36,0A3.76,3.76,0,0,1,125.6,49a4.43,4.43,0,0,1-.55-2.26,4.53,4.53,0,0,1,.55-2.28A3.73,3.73,0,0,1,127.13,43a4.91,4.91,0,0,1,4.36,0Zm-3.68,1.94a2.48,2.48,0,0,0-.62,1.81,2.44,2.44,0,0,0,.62,1.8,2.1,2.1,0,0,0,3,0,2.44,2.44,0,0,0,.61-1.8,2.48,2.48,0,0,0-.61-1.81,2.12,2.12,0,0,0-3,0Z" style="fill:#00c8bd"/><path d="M29.76,31.25A13.75,13.75,0,0,0,16.08,43.63H27V45H16c0,.44,0,.88.06,1.31h8.34v1.37H16.27a13.81,13.81,0,0,0,.37,1.44h5.17V50.5H17.16a13.75,13.75,0,1,0,12.6-19.25Zm-2.4,23.91L23.9,53,26,49.65l3.45,2.17Zm9.15-6.54a7.15,7.15,0,0,1-4.65-1.18l-1.44,2.29-3-1.9,2.76-4.38,1.29.81a7.1,7.1,0,0,0,3.21,1.24A2.51,2.51,0,0,0,37,44.09a2.3,2.3,0,0,0-.77-3.43,2.66,2.66,0,0,0-2-.43,2.43,2.43,0,0,0-1.59,1.17l-3-1.9a5.2,5.2,0,0,1,2.12-2.07,5.28,5.28,0,0,1,3-.53A7.67,7.67,0,0,1,38,38.12a6.48,6.48,0,0,1,2.95,3.57,5.14,5.14,0,0,1-.77,4.36A5.06,5.06,0,0,1,36.51,48.62Z" style="fill:#00c8bd"/></svg>