<?xml version="1.0" encoding="UTF-8"?>
<svg width="64px" height="64px" viewBox="0 0 64 64" version="1.1" xmlns="http://www.w3.org/2000/svg" xmlns:xlink="http://www.w3.org/1999/xlink">
    <!-- Generator: Sketch 60 (88103) - https://sketch.com -->
    <title>Light / Menu</title>
    <desc>Created with Sketch.</desc>
    <g id="Light-/-Menu" stroke="none" stroke-width="1" fill="none" fill-rule="evenodd">
        <path d="M62,50 C63.1045695,50 64,50.8954305 64,52 C64,53.1045695 63.1045695,54 62,54 L62,54 L2,54 C0.8954305,54 0,53.1045695 0,52 C0,50.8954305 0.8954305,50 2,50 L2,50 Z M62,30 C63.1045695,30 64,30.8954305 64,32 C64,33.1045695 63.1045695,34 62,34 L62,34 L2,34 C0.8954305,34 0,33.1045695 0,32 C0,30.8954305 0.8954305,30 2,30 L2,30 Z M62,10 C63.1045695,10 64,10.8954305 64,12 C64,13.1045695 63.1045695,14 62,14 L62,14 L2,14 C0.8954305,14 0,13.1045695 0,12 C0,10.8954305 0.8954305,10 2,10 L2,10 Z" id="Colour" fill="#000000"></path>
    </g>
</svg>